<mxfile host="Electron" modified="2025-04-02T00:29:39.393Z" agent="Mozilla/5.0 (Windows NT 10.0; Win64; x64) AppleWebKit/537.36 (KHTML, like Gecko) draw.io/22.1.21 Chrome/120.0.6099.109 Electron/28.1.0 Safari/537.36" etag="ZKuBW7J1P57LtMzcy67M" version="22.1.21" type="device">
  <diagram name="Page-1" id="qBI5Qyh0KUWHzcETTasV">
    <mxGraphModel dx="662" dy="464" grid="0" gridSize="10" guides="1" tooltips="1" connect="1" arrows="1" fold="1" page="0" pageScale="1" pageWidth="827" pageHeight="1169" math="0" shadow="0">
      <root>
        <mxCell id="0" />
        <mxCell id="1" parent="0" />
        <mxCell id="jCxHYyH7eODJE9wSRtoA-1" value="Windows" style="rounded=0;whiteSpace=wrap;html=1;verticalAlign=top;fontStyle=1;fontSize=15;" vertex="1" parent="1">
          <mxGeometry x="197" y="149" width="384" height="207" as="geometry" />
        </mxCell>
        <mxCell id="jCxHYyH7eODJE9wSRtoA-2" value="WSL&lt;br&gt;Windows Subsystem of Linux" style="ellipse;whiteSpace=wrap;html=1;" vertex="1" parent="1">
          <mxGeometry x="211" y="179" width="231" height="80" as="geometry" />
        </mxCell>
        <mxCell id="jCxHYyH7eODJE9wSRtoA-3" value="Ubuntu Linux" style="rounded=0;whiteSpace=wrap;html=1;" vertex="1" parent="1">
          <mxGeometry x="435" y="275" width="120" height="60" as="geometry" />
        </mxCell>
      </root>
    </mxGraphModel>
  </diagram>
</mxfile>
